<svg width="19" height="14" viewBox="0 0 19 14" fill="none" xmlns="http://www.w3.org/2000/svg">
<rect y="0.661133" width="19" height="13" rx="4" fill="white"/>
<path fill-rule="evenodd" clip-rule="evenodd" d="M2.56727 4.80141C2.92287 4.83134 3.27847 4.62182 3.50072 4.35619C3.71926 4.08307 3.86372 3.71642 3.82668 3.34229C3.51183 3.35725 3.12289 3.5518 2.90065 3.82492C2.69692 4.06062 2.52282 4.44224 2.56727 4.80141ZM6.79823 9.62039V3.78765H8.96515C10.0838 3.78765 10.8654 4.56585 10.8654 5.70321C10.8654 6.84058 10.069 7.62626 8.93551 7.62626H7.69463V9.62039H6.79823ZM3.82427 4.87256C3.51099 4.85435 3.22514 4.96772 2.99426 5.05929C2.84567 5.11822 2.71985 5.16812 2.62413 5.16812C2.51671 5.16812 2.38569 5.11555 2.23859 5.05653C2.04584 4.97919 1.82547 4.89076 1.59438 4.89501C1.06469 4.90249 0.572037 5.20554 0.301635 5.68817C-0.253986 6.65343 0.157173 8.08262 0.694273 8.8683C0.957267 9.2574 1.27212 9.68391 1.68698 9.66895C1.8695 9.66199 2.00079 9.60572 2.13666 9.54749C2.29309 9.48044 2.45559 9.4108 2.70932 9.4108C2.95426 9.4108 3.10965 9.47863 3.25882 9.54374C3.40066 9.60566 3.53687 9.66511 3.73907 9.66147C4.16875 9.65398 4.43915 9.27237 4.70215 8.88327C4.98596 8.46566 5.11068 8.05809 5.12961 7.99624L5.13183 7.98909C5.13138 7.98863 5.12788 7.98702 5.12171 7.98416L5.1217 7.98416L5.12168 7.98415C5.02681 7.94028 4.30165 7.60497 4.29469 6.70581C4.28771 5.9511 4.86987 5.56872 4.96151 5.50852C4.96709 5.50486 4.97085 5.50239 4.97255 5.5011C4.60214 4.94738 4.02429 4.88752 3.82427 4.87256ZM12.5029 9.66511C13.0659 9.66511 13.5882 9.37703 13.8252 8.92059H13.8438V9.62022H14.6735V6.71694C14.6735 5.87514 14.0068 5.33265 12.9807 5.33265C12.0287 5.33265 11.325 5.88263 11.299 6.63838H12.1065C12.1732 6.27921 12.5029 6.0435 12.9548 6.0435C13.503 6.0435 13.8104 6.30166 13.8104 6.77681V7.09856L12.6918 7.1659C11.6509 7.22951 11.0879 7.65976 11.0879 8.40803C11.0879 9.16378 11.6694 9.66511 12.5029 9.66511ZM12.7432 8.97307C12.2653 8.97307 11.9616 8.74111 11.9616 8.38568C11.9616 8.01903 12.2542 7.80578 12.8136 7.7721L13.81 7.7085V8.03774C13.81 8.58397 13.3507 8.97307 12.7432 8.97307ZM17.425 9.84846C17.0657 10.8698 16.6545 11.2066 15.7803 11.2066C15.7137 11.2066 15.4914 11.1991 15.4396 11.1841V10.4845C15.4951 10.492 15.6322 10.4995 15.7025 10.4995C16.0989 10.4995 16.3211 10.3311 16.4582 9.89336L16.5397 9.6352L15.021 5.38879H15.9581L17.0138 8.83456H17.0323L18.088 5.38879H18.9992L17.425 9.84846ZM7.69372 4.55079H8.72718C9.50504 4.55079 9.94954 4.96982 9.94954 5.70687C9.94954 6.44391 9.50504 6.86668 8.72347 6.86668H7.69372V4.55079Z" fill="black"/>
</svg>
