<svg width="262" height="17" viewBox="0 0 262 17" fill="none" xmlns="http://www.w3.org/2000/svg">
<path d="M0.232955 13.7073V3.52546H3.79261C4.50189 3.52546 5.08688 3.64809 5.54759 3.89336C6.00829 4.13531 6.35133 4.46177 6.5767 4.87276C6.80208 5.28043 6.91477 5.73284 6.91477 6.23C6.91477 6.6675 6.83688 7.02877 6.68111 7.31381C6.52865 7.59885 6.32647 7.82423 6.07457 7.98995C5.82599 8.15567 5.55587 8.2783 5.2642 8.35784V8.45728C5.57576 8.47716 5.88897 8.58654 6.20384 8.7854C6.5187 8.98426 6.7822 9.2693 6.99432 9.64051C7.20644 10.0117 7.3125 10.4658 7.3125 11.0027C7.3125 11.5131 7.1965 11.9722 6.96449 12.3799C6.73248 12.7875 6.36624 13.1107 5.86577 13.3493C5.36529 13.588 4.71402 13.7073 3.91193 13.7073H0.232955ZM1.46591 12.6135H3.91193C4.71733 12.6135 5.28906 12.4577 5.62713 12.1462C5.96851 11.8313 6.1392 11.4502 6.1392 11.0027C6.1392 10.658 6.05137 10.3399 5.87571 10.0482C5.70005 9.7532 5.44981 9.51788 5.125 9.34222C4.80019 9.16324 4.41572 9.07375 3.97159 9.07375H1.46591V12.6135ZM1.46591 7.99989H3.75284C4.12405 7.99989 4.45881 7.92697 4.7571 7.78114C5.05871 7.63531 5.29735 7.42981 5.47301 7.16466C5.65199 6.89951 5.74148 6.58796 5.74148 6.23C5.74148 5.78256 5.5857 5.40306 5.27415 5.09151C4.9626 4.77664 4.46875 4.61921 3.79261 4.61921H1.46591V7.99989ZM13.9918 10.5851V6.07091H15.1651V13.7073H13.9918V12.4147H13.9123C13.7333 12.8024 13.4549 13.1322 13.0771 13.404C12.6992 13.6725 12.2219 13.8067 11.6452 13.8067C11.168 13.8067 10.7437 13.7023 10.3725 13.4935C10.0013 13.2814 9.70964 12.9632 9.49751 12.539C9.28539 12.1114 9.17933 11.5728 9.17933 10.9232V6.07091H10.3526V10.8436C10.3526 11.4005 10.5084 11.8446 10.82 12.176C11.1348 12.5075 11.5359 12.6732 12.0231 12.6732C12.3147 12.6732 12.6114 12.5986 12.913 12.4495C13.2179 12.3003 13.4731 12.0716 13.6786 11.7634C13.8874 11.4551 13.9918 11.0624 13.9918 10.5851ZM18.0698 16.5709C17.8709 16.5709 17.6936 16.5543 17.5378 16.5212C17.382 16.4914 17.2743 16.4615 17.2147 16.4317L17.513 15.3976C17.798 15.4705 18.0499 15.497 18.2686 15.4772C18.4874 15.4573 18.6813 15.3595 18.8503 15.1838C19.0227 15.0115 19.1801 14.7314 19.3226 14.3436L19.5414 13.747L16.7175 6.07091H17.9902L20.0982 12.1561H20.1777L22.2857 6.07091H23.5584L20.3169 14.8209C20.1711 15.2153 19.9905 15.5418 19.775 15.8003C19.5596 16.0622 19.3094 16.256 19.0243 16.382C18.7426 16.5079 18.4244 16.5709 18.0698 16.5709ZM28.8556 13.7073V3.52546H35.5971V5.30031H31.0083V7.72645H35.1497V9.50131H31.0083V13.7073H28.8556ZM39.8951 13.8564C39.1228 13.8564 38.455 13.6924 37.8915 13.3642C37.3314 13.0328 36.8989 12.5721 36.5939 11.9821C36.289 11.3889 36.1365 10.7011 36.1365 9.91892C36.1365 9.1301 36.289 8.4407 36.5939 7.85074C36.8989 7.25746 37.3314 6.79676 37.8915 6.46864C38.455 6.1372 39.1228 5.97148 39.8951 5.97148C40.6673 5.97148 41.3335 6.1372 41.8936 6.46864C42.4571 6.79676 42.8913 7.25746 43.1962 7.85074C43.5011 8.4407 43.6536 9.1301 43.6536 9.91892C43.6536 10.7011 43.5011 11.3889 43.1962 11.9821C42.8913 12.5721 42.4571 13.0328 41.8936 13.3642C41.3335 13.6924 40.6673 13.8564 39.8951 13.8564ZM39.905 12.2158C40.2563 12.2158 40.5497 12.1164 40.785 11.9175C41.0203 11.7153 41.1976 11.4402 41.3169 11.0922C41.4396 10.7442 41.5009 10.3481 41.5009 9.90401C41.5009 9.45988 41.4396 9.06381 41.3169 8.7158C41.1976 8.36779 41.0203 8.09269 40.785 7.89051C40.5497 7.68834 40.2563 7.58725 39.905 7.58725C39.5504 7.58725 39.2521 7.68834 39.0101 7.89051C38.7715 8.09269 38.5909 8.36779 38.4682 8.7158C38.3489 9.06381 38.2892 9.45988 38.2892 9.90401C38.2892 10.3481 38.3489 10.7442 38.4682 11.0922C38.5909 11.4402 38.7715 11.7153 39.0101 11.9175C39.2521 12.1164 39.5504 12.2158 39.905 12.2158ZM47.1486 3.52546V13.7073H45.0307V3.52546H47.1486ZM50.9631 3.52546V13.7073H48.8452V3.52546H50.9631ZM56.1099 13.8564C55.3377 13.8564 54.6698 13.6924 54.1064 13.3642C53.5462 13.0328 53.1137 12.5721 52.8088 11.9821C52.5038 11.3889 52.3514 10.7011 52.3514 9.91892C52.3514 9.1301 52.5038 8.4407 52.8088 7.85074C53.1137 7.25746 53.5462 6.79676 54.1064 6.46864C54.6698 6.1372 55.3377 5.97148 56.1099 5.97148C56.8822 5.97148 57.5484 6.1372 58.1085 6.46864C58.6719 6.79676 59.1061 7.25746 59.411 7.85074C59.716 8.4407 59.8684 9.1301 59.8684 9.91892C59.8684 10.7011 59.716 11.3889 59.411 11.9821C59.1061 12.5721 58.6719 13.0328 58.1085 13.3642C57.5484 13.6924 56.8822 13.8564 56.1099 13.8564ZM56.1199 12.2158C56.4712 12.2158 56.7645 12.1164 56.9998 11.9175C57.2351 11.7153 57.4125 11.4402 57.5318 11.0922C57.6544 10.7442 57.7157 10.3481 57.7157 9.90401C57.7157 9.45988 57.6544 9.06381 57.5318 8.7158C57.4125 8.36779 57.2351 8.09269 56.9998 7.89051C56.7645 7.68834 56.4712 7.58725 56.1199 7.58725C55.7652 7.58725 55.4669 7.68834 55.225 7.89051C54.9863 8.09269 54.8057 8.36779 54.6831 8.7158C54.5637 9.06381 54.5041 9.45988 54.5041 9.90401C54.5041 10.3481 54.5637 10.7442 54.6831 11.0922C54.8057 11.4402 54.9863 11.7153 55.225 11.9175C55.4669 12.1164 55.7652 12.2158 56.1199 12.2158ZM62.5605 13.7073L60.4824 6.07091H62.6252L63.8084 11.2016H63.878L65.111 6.07091H67.214L68.4668 11.1718H68.5314L69.6948 6.07091H71.8326L69.7594 13.7073H67.5172L66.2047 8.90472H66.1103L64.7978 13.7073H62.5605ZM76.2511 13.8564C75.4656 13.8564 74.7894 13.6973 74.2227 13.3792C73.6592 13.0577 73.225 12.6036 72.9201 12.0169C72.6152 11.427 72.4627 10.7293 72.4627 9.92389C72.4627 9.13838 72.6152 8.44899 72.9201 7.85571C73.225 7.26244 73.6542 6.80008 74.2077 6.46864C74.7646 6.1372 75.4175 5.97148 76.1665 5.97148C76.6703 5.97148 77.1393 6.05268 77.5735 6.21509C78.011 6.37418 78.3922 6.61447 78.717 6.93597C79.0451 7.25746 79.3003 7.66182 79.4826 8.14904C79.6649 8.63294 79.756 9.1997 79.756 9.84932V10.431H73.3079V9.1185H77.7624C77.7624 8.81357 77.6961 8.54345 77.5636 8.30813C77.431 8.07281 77.247 7.88886 77.0117 7.75628C76.7797 7.62039 76.5096 7.55245 76.2013 7.55245C75.8799 7.55245 75.5948 7.62702 75.3462 7.77617C75.101 7.922 74.9087 8.11921 74.7695 8.36779C74.6303 8.61305 74.5591 8.88649 74.5558 9.1881V10.436C74.5558 10.8138 74.6254 11.1403 74.7646 11.4154C74.9071 11.6905 75.1076 11.9026 75.3661 12.0517C75.6246 12.2009 75.9312 12.2755 76.2859 12.2755C76.5212 12.2755 76.7366 12.2423 76.9322 12.176C77.1277 12.1097 77.2951 12.0103 77.4343 11.8777C77.5735 11.7452 77.6796 11.5827 77.7525 11.3905L79.7113 11.5198C79.6119 11.9904 79.408 12.4014 79.0998 12.7527C78.7949 13.1007 78.4004 13.3725 77.9165 13.5681C77.436 13.7603 76.8808 13.8564 76.2511 13.8564ZM81.1381 13.7073V6.07091H83.1914V7.4033H83.271C83.4102 6.92934 83.6438 6.57138 83.9719 6.32943C84.3001 6.08417 84.6779 5.96154 85.1055 5.96154C85.2115 5.96154 85.3259 5.96817 85.4485 5.98142C85.5711 5.99468 85.6789 6.01291 85.7717 6.03611V7.91537C85.6722 7.88554 85.5347 7.85903 85.359 7.83583C85.1834 7.81263 85.0226 7.80103 84.8768 7.80103C84.5652 7.80103 84.2868 7.86897 84.0415 8.00486C83.7996 8.13744 83.6074 8.32304 83.4648 8.56168C83.3256 8.80032 83.256 9.07541 83.256 9.38696V13.7073H81.1381ZM93.2203 8.24847L91.2814 8.36779C91.2483 8.20207 91.177 8.05292 91.0676 7.92034C90.9583 7.78445 90.8141 7.67674 90.6351 7.59719C90.4595 7.51433 90.249 7.4729 90.0037 7.4729C89.6756 7.4729 89.3989 7.5425 89.1735 7.68171C88.9481 7.8176 88.8354 7.99989 88.8354 8.22858C88.8354 8.41087 88.9083 8.56499 89.0542 8.69094C89.2 8.81689 89.4502 8.91798 89.8049 8.99421L91.187 9.27262C91.9294 9.42508 92.4829 9.67034 92.8475 10.0084C93.2121 10.3465 93.3944 10.7906 93.3944 11.3408C93.3944 11.8413 93.2469 12.2804 92.9519 12.6583C92.6602 13.0361 92.2592 13.3311 91.7488 13.5432C91.2417 13.752 90.6567 13.8564 89.9938 13.8564C88.9829 13.8564 88.1775 13.646 87.5776 13.225C86.981 12.8008 86.6313 12.2241 86.5286 11.4949L88.6117 11.3855C88.6747 11.6938 88.8271 11.9291 89.0691 12.0915C89.311 12.2506 89.6209 12.3301 89.9988 12.3301C90.37 12.3301 90.6683 12.2589 90.8936 12.1164C91.1223 11.9705 91.2383 11.7833 91.2417 11.5546C91.2383 11.3623 91.1571 11.2049 90.998 11.0823C90.839 10.9563 90.5937 10.8602 90.2623 10.7939L88.9398 10.5304C88.1941 10.3813 87.6389 10.1228 87.2743 9.75486C86.9131 9.38696 86.7324 8.91798 86.7324 8.3479C86.7324 7.85737 86.865 7.43478 87.1301 7.08014C87.3986 6.7255 87.7748 6.45207 88.2587 6.25983C88.7459 6.0676 89.316 5.97148 89.9689 5.97148C90.9334 5.97148 91.6924 6.17532 92.2459 6.58299C92.8027 6.99066 93.1275 7.54582 93.2203 8.24847ZM96.5227 12.3152L96.4332 12.8472C96.3769 13.2051 96.2973 13.5996 96.1946 14.0304C96.0919 14.4613 95.9858 14.8706 95.8764 15.2584C95.767 15.6462 95.6726 15.9577 95.593 16.1931H94.9119C94.955 15.9677 95.0097 15.681 95.076 15.333C95.1456 14.985 95.2169 14.5988 95.2898 14.1746C95.3627 13.7537 95.429 13.3195 95.4886 12.872L95.5582 12.3152H96.5227ZM102.52 13.7073V3.52546H104.672V11.9324H109.037V13.7073H102.52ZM110.423 13.7073V6.07091H112.541V13.7073H110.423ZM111.487 5.08654C111.172 5.08654 110.902 4.98213 110.677 4.77333C110.455 4.5612 110.344 4.30765 110.344 4.01267C110.344 3.72101 110.455 3.47077 110.677 3.26196C110.902 3.04984 111.172 2.94378 111.487 2.94378C111.802 2.94378 112.071 3.04984 112.293 3.26196C112.518 3.47077 112.631 3.72101 112.631 4.01267C112.631 4.30765 112.518 4.5612 112.293 4.77333C112.071 4.98213 111.802 5.08654 111.487 5.08654ZM116.157 11.5098L116.162 8.96935H116.47L118.916 6.07091H121.347L118.061 9.90898H117.559L116.157 11.5098ZM114.238 13.7073V3.52546H116.356V13.7073H114.238ZM119.01 13.7073L116.763 10.3813L118.175 8.88483L121.491 13.7073H119.01ZM125.552 13.8564C124.766 13.8564 124.09 13.6973 123.523 13.3792C122.96 13.0577 122.526 12.6036 122.221 12.0169C121.916 11.427 121.763 10.7293 121.763 9.92389C121.763 9.13838 121.916 8.44899 122.221 7.85571C122.526 7.26244 122.955 6.80008 123.509 6.46864C124.065 6.1372 124.718 5.97148 125.467 5.97148C125.971 5.97148 126.44 6.05268 126.874 6.21509C127.312 6.37418 127.693 6.61447 128.018 6.93597C128.346 7.25746 128.601 7.66182 128.783 8.14904C128.966 8.63294 129.057 9.1997 129.057 9.84932V10.431H122.609V9.1185H127.063C127.063 8.81357 126.997 8.54345 126.864 8.30813C126.732 8.07281 126.548 7.88886 126.312 7.75628C126.08 7.62039 125.81 7.55245 125.502 7.55245C125.181 7.55245 124.896 7.62702 124.647 7.77617C124.402 7.922 124.21 8.11921 124.07 8.36779C123.931 8.61305 123.86 8.88649 123.857 9.1881V10.436C123.857 10.8138 123.926 11.1403 124.065 11.4154C124.208 11.6905 124.408 11.9026 124.667 12.0517C124.925 12.2009 125.232 12.2755 125.587 12.2755C125.822 12.2755 126.037 12.2423 126.233 12.176C126.429 12.1097 126.596 12.0103 126.735 11.8777C126.874 11.7452 126.98 11.5827 127.053 11.3905L129.012 11.5198C128.913 11.9904 128.709 12.4014 128.401 12.7527C128.096 13.1007 127.701 13.3725 127.217 13.5681C126.737 13.7603 126.182 13.8564 125.552 13.8564ZM136.793 8.24847L134.854 8.36779C134.821 8.20207 134.749 8.05292 134.64 7.92034C134.531 7.78445 134.386 7.67674 134.207 7.59719C134.032 7.51433 133.821 7.4729 133.576 7.4729C133.248 7.4729 132.971 7.5425 132.746 7.68171C132.52 7.8176 132.408 7.99989 132.408 8.22858C132.408 8.41087 132.481 8.56499 132.626 8.69094C132.772 8.81689 133.022 8.91798 133.377 8.99421L134.759 9.27262C135.502 9.42508 136.055 9.67034 136.42 10.0084C136.784 10.3465 136.967 10.7906 136.967 11.3408C136.967 11.8413 136.819 12.2804 136.524 12.6583C136.232 13.0361 135.831 13.3311 135.321 13.5432C134.814 13.752 134.229 13.8564 133.566 13.8564C132.555 13.8564 131.75 13.646 131.15 13.225C130.553 12.8008 130.204 12.2241 130.101 11.4949L132.184 11.3855C132.247 11.6938 132.399 11.9291 132.641 12.0915C132.883 12.2506 133.193 12.3301 133.571 12.3301C133.942 12.3301 134.241 12.2589 134.466 12.1164C134.695 11.9705 134.811 11.7833 134.814 11.5546C134.811 11.3623 134.729 11.2049 134.57 11.0823C134.411 10.9563 134.166 10.8602 133.835 10.7939L132.512 10.5304C131.766 10.3813 131.211 10.1228 130.847 9.75486C130.485 9.38696 130.305 8.91798 130.305 8.3479C130.305 7.85737 130.437 7.43478 130.702 7.08014C130.971 6.7255 131.347 6.45207 131.831 6.25983C132.318 6.0676 132.888 5.97148 133.541 5.97148C134.506 5.97148 135.265 6.17532 135.818 6.58299C136.375 6.99066 136.7 7.54582 136.793 8.24847ZM140.095 12.3152L140.006 12.8472C139.949 13.2051 139.87 13.5996 139.767 14.0304C139.664 14.4613 139.558 14.8706 139.449 15.2584C139.339 15.6462 139.245 15.9577 139.165 16.1931H138.484C138.527 15.9677 138.582 15.681 138.648 15.333C138.718 14.985 138.789 14.5988 138.862 14.1746C138.935 13.7537 139.001 13.3195 139.061 12.872L139.131 12.3152H140.095ZM147.931 3.52546L150.392 11.2613H150.487L152.953 3.52546H155.339L151.829 13.7073H149.055L145.54 3.52546H147.931ZM156.525 13.7073V6.07091H158.643V13.7073H156.525ZM157.589 5.08654C157.274 5.08654 157.004 4.98213 156.778 4.77333C156.556 4.5612 156.445 4.30765 156.445 4.01267C156.445 3.72101 156.556 3.47077 156.778 3.26196C157.004 3.04984 157.274 2.94378 157.589 2.94378C157.904 2.94378 158.172 3.04984 158.394 3.26196C158.62 3.47077 158.732 3.72101 158.732 4.01267C158.732 4.30765 158.62 4.5612 158.394 4.77333C158.172 4.98213 157.904 5.08654 157.589 5.08654ZM163.819 13.8564C163.034 13.8564 162.358 13.6973 161.791 13.3792C161.228 13.0577 160.793 12.6036 160.488 12.0169C160.184 11.427 160.031 10.7293 160.031 9.92389C160.031 9.13838 160.184 8.44899 160.488 7.85571C160.793 7.26244 161.223 6.80008 161.776 6.46864C162.333 6.1372 162.986 5.97148 163.735 5.97148C164.239 5.97148 164.708 6.05268 165.142 6.21509C165.579 6.37418 165.961 6.61447 166.285 6.93597C166.613 7.25746 166.869 7.66182 167.051 8.14904C167.233 8.63294 167.324 9.1997 167.324 9.84932V10.431H160.876V9.1185H165.331C165.331 8.81357 165.265 8.54345 165.132 8.30813C164.999 8.07281 164.815 7.88886 164.58 7.75628C164.348 7.62039 164.078 7.55245 163.77 7.55245C163.448 7.55245 163.163 7.62702 162.915 7.77617C162.669 7.922 162.477 8.11921 162.338 8.36779C162.199 8.61305 162.127 8.88649 162.124 9.1881V10.436C162.124 10.8138 162.194 11.1403 162.333 11.4154C162.475 11.6905 162.676 11.9026 162.934 12.0517C163.193 12.2009 163.5 12.2755 163.854 12.2755C164.09 12.2755 164.305 12.2423 164.501 12.176C164.696 12.1097 164.863 12.0103 165.003 11.8777C165.142 11.7452 165.248 11.5827 165.321 11.3905L167.28 11.5198C167.18 11.9904 166.976 12.4014 166.668 12.7527C166.363 13.1007 165.969 13.3725 165.485 13.5681C165.004 13.7603 164.449 13.8564 163.819 13.8564ZM170.158 13.7073L168.08 6.07091H170.223L171.406 11.2016H171.476L172.709 6.07091H174.812L176.064 11.1718H176.129L177.292 6.07091H179.43L177.357 13.7073H175.115L173.802 8.90472H173.708L172.395 13.7073H170.158ZM186.914 8.24847L184.975 8.36779C184.942 8.20207 184.87 8.05292 184.761 7.92034C184.652 7.78445 184.507 7.67674 184.328 7.59719C184.153 7.51433 183.942 7.4729 183.697 7.4729C183.369 7.4729 183.092 7.5425 182.867 7.68171C182.641 7.8176 182.529 7.99989 182.529 8.22858C182.529 8.41087 182.602 8.56499 182.748 8.69094C182.893 8.81689 183.144 8.91798 183.498 8.99421L184.88 9.27262C185.623 9.42508 186.176 9.67034 186.541 10.0084C186.905 10.3465 187.088 10.7906 187.088 11.3408C187.088 11.8413 186.94 12.2804 186.645 12.6583C186.354 13.0361 185.953 13.3311 185.442 13.5432C184.935 13.752 184.35 13.8564 183.687 13.8564C182.676 13.8564 181.871 13.646 181.271 13.225C180.674 12.8008 180.325 12.2241 180.222 11.4949L182.305 11.3855C182.368 11.6938 182.52 11.9291 182.762 12.0915C183.004 12.2506 183.314 12.3301 183.692 12.3301C184.063 12.3301 184.362 12.2589 184.587 12.1164C184.816 11.9705 184.932 11.7833 184.935 11.5546C184.932 11.3623 184.85 11.2049 184.691 11.0823C184.532 10.9563 184.287 10.8602 183.956 10.7939L182.633 10.5304C181.887 10.3813 181.332 10.1228 180.968 9.75486C180.606 9.38696 180.426 8.91798 180.426 8.3479C180.426 7.85737 180.558 7.43478 180.824 7.08014C181.092 6.7255 181.468 6.45207 181.952 6.25983C182.439 6.0676 183.009 5.97148 183.662 5.97148C184.627 5.97148 185.386 6.17532 185.939 6.58299C186.496 6.99066 186.821 7.54582 186.914 8.24847ZM195.471 13.8465C194.802 13.8465 194.225 13.7238 193.741 13.4786C193.257 13.2333 192.884 12.8969 192.622 12.4693C192.36 12.0418 192.23 11.5529 192.23 11.0027C192.23 10.5785 192.319 10.2023 192.498 9.87418C192.68 9.54274 192.931 9.23616 193.249 8.95443C193.57 8.6694 193.94 8.38436 194.357 8.09932L195.829 7.00557C196.117 6.81665 196.348 6.61447 196.52 6.39904C196.696 6.1836 196.784 5.90188 196.784 5.55387C196.784 5.29534 196.669 5.04511 196.441 4.80316C196.215 4.56121 195.919 4.44023 195.551 4.44023C195.292 4.44023 195.063 4.50652 194.865 4.63909C194.669 4.76835 194.515 4.93407 194.402 5.13625C194.293 5.33512 194.238 5.54061 194.238 5.75273C194.238 5.99137 194.303 6.23332 194.432 6.47858C194.565 6.72053 194.732 6.96911 194.934 7.22432C195.14 7.47621 195.352 7.73474 195.57 7.99989L200.244 13.7073H198.832L194.974 9.05387C194.616 8.62299 194.291 8.2319 193.999 7.88057C193.708 7.52924 193.476 7.18289 193.303 6.84151C193.131 6.50013 193.045 6.13057 193.045 5.73284C193.045 5.27546 193.146 4.87441 193.348 4.52972C193.554 4.18171 193.84 3.91158 194.208 3.71935C194.579 3.5238 195.014 3.42603 195.511 3.42603C196.021 3.42603 196.46 3.52546 196.828 3.72432C197.196 3.91987 197.48 4.18005 197.678 4.50486C197.877 4.82636 197.977 5.17603 197.977 5.55387C197.977 6.04108 197.856 6.46367 197.614 6.82162C197.372 7.17958 197.042 7.51267 196.624 7.82091L194.596 9.33228C194.139 9.67034 193.829 9.99847 193.666 10.3167C193.504 10.6348 193.423 10.8635 193.423 11.0027C193.423 11.3209 193.506 11.6176 193.671 11.8926C193.837 12.1677 194.071 12.3898 194.372 12.5588C194.674 12.7279 195.027 12.8124 195.431 12.8124C195.816 12.8124 196.19 12.7312 196.555 12.5688C196.919 12.4031 197.249 12.1644 197.544 11.8529C197.843 11.5413 198.078 11.1668 198.25 10.7293C198.426 10.2918 198.514 9.79961 198.514 9.25273H199.647C199.647 9.92887 199.569 10.4807 199.414 10.9083C199.258 11.3358 199.082 11.6706 198.887 11.9125C198.691 12.1545 198.534 12.3351 198.414 12.4544C198.374 12.5042 198.338 12.5539 198.305 12.6036C198.272 12.6533 198.235 12.703 198.195 12.7527C197.867 13.1206 197.453 13.3957 196.953 13.578C196.452 13.757 195.958 13.8465 195.471 13.8465ZM205.251 13.7073V6.07091H207.27V7.41821H207.359C207.518 6.97077 207.784 6.61779 208.155 6.35926C208.526 6.10074 208.97 5.97148 209.487 5.97148C210.011 5.97148 210.457 6.1024 210.825 6.36424C211.192 6.62276 211.438 6.97408 211.56 7.41821H211.64C211.796 6.98071 212.077 6.63104 212.485 6.36921C212.896 6.10406 213.382 5.97148 213.942 5.97148C214.654 5.97148 215.233 6.19852 215.677 6.65259C216.124 7.10335 216.348 7.74302 216.348 8.57162V13.7073H214.235V8.98924C214.235 8.56499 214.122 8.24681 213.897 8.03469C213.672 7.82257 213.39 7.71651 213.052 7.71651C212.667 7.71651 212.367 7.83914 212.152 8.08441C211.937 8.32636 211.829 8.6462 211.829 9.04392V13.7073H209.776V8.94449C209.776 8.56996 209.668 8.27167 209.452 8.0496C209.24 7.82754 208.96 7.71651 208.612 7.71651C208.377 7.71651 208.165 7.77617 207.976 7.89549C207.79 8.01149 207.643 8.17555 207.533 8.38767C207.424 8.59648 207.369 8.84174 207.369 9.12347V13.7073H205.251ZM221.471 13.8564C220.699 13.8564 220.031 13.6924 219.468 13.3642C218.908 13.0328 218.475 12.5721 218.17 11.9821C217.865 11.3889 217.713 10.7011 217.713 9.91892C217.713 9.1301 217.865 8.4407 218.17 7.85074C218.475 7.25746 218.908 6.79676 219.468 6.46864C220.031 6.1372 220.699 5.97148 221.471 5.97148C222.243 5.97148 222.91 6.1372 223.47 6.46864C224.033 6.79676 224.467 7.25746 224.772 7.85074C225.077 8.4407 225.23 9.1301 225.23 9.91892C225.23 10.7011 225.077 11.3889 224.772 11.9821C224.467 12.5721 224.033 13.0328 223.47 13.3642C222.91 13.6924 222.243 13.8564 221.471 13.8564ZM221.481 12.2158C221.833 12.2158 222.126 12.1164 222.361 11.9175C222.596 11.7153 222.774 11.4402 222.893 11.0922C223.016 10.7442 223.077 10.3481 223.077 9.90401C223.077 9.45988 223.016 9.06381 222.893 8.7158C222.774 8.36779 222.596 8.09269 222.361 7.89051C222.126 7.68834 221.833 7.58725 221.481 7.58725C221.127 7.58725 220.828 7.68834 220.586 7.89051C220.348 8.09269 220.167 8.36779 220.044 8.7158C219.925 9.06381 219.865 9.45988 219.865 9.90401C219.865 10.3481 219.925 10.7442 220.044 11.0922C220.167 11.4402 220.348 11.7153 220.586 11.9175C220.828 12.1164 221.127 12.2158 221.481 12.2158ZM226.607 13.7073V6.07091H228.66V7.4033H228.74C228.879 6.92934 229.113 6.57138 229.441 6.32943C229.769 6.08417 230.147 5.96154 230.574 5.96154C230.68 5.96154 230.795 5.96817 230.917 5.98142C231.04 5.99468 231.148 6.01291 231.24 6.03611V7.91537C231.141 7.88554 231.003 7.85903 230.828 7.83583C230.652 7.81263 230.491 7.80103 230.346 7.80103C230.034 7.80103 229.756 7.86897 229.51 8.00486C229.268 8.13744 229.076 8.32304 228.934 8.56168C228.794 8.80032 228.725 9.07541 228.725 9.38696V13.7073H226.607ZM235.46 13.8564C234.675 13.8564 233.998 13.6973 233.432 13.3792C232.868 13.0577 232.434 12.6036 232.129 12.0169C231.824 11.427 231.672 10.7293 231.672 9.92389C231.672 9.13838 231.824 8.44899 232.129 7.85571C232.434 7.26244 232.863 6.80008 233.417 6.46864C233.974 6.1372 234.626 5.97148 235.376 5.97148C235.879 5.97148 236.348 6.05268 236.782 6.21509C237.22 6.37418 237.601 6.61447 237.926 6.93597C238.254 7.25746 238.509 7.66182 238.692 8.14904C238.874 8.63294 238.965 9.1997 238.965 9.84932V10.431H232.517V9.1185H236.971C236.971 8.81357 236.905 8.54345 236.773 8.30813C236.64 8.07281 236.456 7.88886 236.221 7.75628C235.989 7.62039 235.719 7.55245 235.41 7.55245C235.089 7.55245 234.804 7.62702 234.555 7.77617C234.31 7.922 234.118 8.11921 233.979 8.36779C233.839 8.61305 233.768 8.88649 233.765 9.1881V10.436C233.765 10.8138 233.834 11.1403 233.974 11.4154C234.116 11.6905 234.317 11.9026 234.575 12.0517C234.834 12.2009 235.14 12.2755 235.495 12.2755C235.73 12.2755 235.946 12.2423 236.141 12.176C236.337 12.1097 236.504 12.0103 236.643 11.8777C236.782 11.7452 236.889 11.5827 236.961 11.3905L238.92 11.5198C238.821 11.9904 238.617 12.4014 238.309 12.7527C238.004 13.1007 237.609 13.3725 237.126 13.5681C236.645 13.7603 236.09 13.8564 235.46 13.8564ZM241.913 3.52546L241.849 10.789H240.974L240.909 3.52546H241.913ZM241.411 13.7818C241.215 13.7818 241.046 13.7122 240.904 13.573C240.765 13.4305 240.695 13.2615 240.695 13.0659C240.695 12.8671 240.765 12.698 240.904 12.5588C241.046 12.4196 241.215 12.35 241.411 12.35C241.607 12.35 241.774 12.4196 241.913 12.5588C242.056 12.698 242.127 12.8671 242.127 13.0659C242.127 13.1952 242.094 13.3145 242.028 13.4239C241.965 13.5333 241.878 13.6211 241.769 13.6874C241.663 13.7504 241.544 13.7818 241.411 13.7818ZM247.254 14.6873H261.254V0.687275H247.254V14.6873Z" fill="#3F3F3F"/>
</svg>
