<svg width="24" height="25" viewBox="0 0 24 25" fill="none" xmlns="http://www.w3.org/2000/svg">
<g opacity="0.3">
<path d="M21.3 11.532C21.69 11.532 22 11.222 22 10.832V9.902C22 5.802 20.75 4.552 16.65 4.552H7.35C3.25 4.552 2 5.802 2 9.902V10.372C2 10.762 2.31 11.072 2.7 11.072C3.6 11.072 4.33 11.802 4.33 12.702C4.33 13.602 3.6 14.322 2.7 14.322C2.31 14.322 2 14.632 2 15.022V15.492C2 19.592 3.25 20.842 7.35 20.842H16.65C20.75 20.842 22 19.592 22 15.492C22 15.102 21.69 14.792 21.3 14.792C20.4 14.792 19.67 14.062 19.67 13.162C19.67 12.262 20.4 11.532 21.3 11.532ZM9 9.572C9.55 9.572 10 10.022 10 10.572C10 11.122 9.56 11.572 9 11.572C8.45 11.572 8 11.122 8 10.572C8 10.022 8.44 9.572 9 9.572ZM15 16.572C14.44 16.572 13.99 16.122 13.99 15.572C13.99 15.022 14.44 14.572 14.99 14.572C15.54 14.572 15.99 15.022 15.99 15.572C15.99 16.122 15.56 16.572 15 16.572ZM15.9 10.172L9.17 16.902C9.02 17.052 8.83 17.122 8.64 17.122C8.45 17.122 8.26 17.052 8.11 16.902C7.82 16.612 7.82 16.132 8.11 15.842L14.84 9.112C15.13 8.822 15.61 8.822 15.9 9.112C16.19 9.402 16.19 9.882 15.9 10.172Z" fill="black"/>
</g>
</svg>
