<svg width="215" height="63" viewBox="0 0 215 63" fill="none" xmlns="http://www.w3.org/2000/svg">
<path d="M50.5512 23.6879H56.4789V50.0424H50.5512V23.6879ZM50.105 14.1392C50.105 13.2055 50.4662 12.4204 51.1886 11.7838C51.9534 11.1472 52.782 10.8289 53.6744 10.8289C54.5668 10.8289 55.3529 11.1472 56.0328 11.7838C56.7551 12.4204 57.1163 13.2055 57.1163 14.1392C57.1163 15.1153 56.7551 15.9216 56.0328 16.5582C55.3529 17.1523 54.5668 17.4494 53.6744 17.4494C52.782 17.4494 51.9534 17.1311 51.1886 16.4945C50.4662 15.8579 50.105 15.0728 50.105 14.1392Z" fill="#3F3F3F"/>
<path d="M72.0254 23.6879L72.5991 31.3269L72.2804 30.3084C72.9603 28.6957 73.9376 27.3376 75.2124 26.2342C76.5297 25.0884 77.8895 24.2184 79.2917 23.6242C80.7365 22.9877 81.99 22.6694 83.0524 22.6694L82.7337 28.5259C80.7365 28.3986 78.973 28.7806 77.4433 29.6718C75.956 30.563 74.7662 31.7513 73.8739 33.2366C73.024 34.722 72.5991 36.3134 72.5991 38.011V50.0424H66.735V23.6879H72.0254Z" fill="#3F3F3F"/>
<path d="M101.04 50.679C98.5758 50.679 96.3236 50.1485 94.284 49.0875C92.2868 48.0266 90.6933 46.4775 89.5035 44.4405C88.3562 42.361 87.7825 39.8359 87.7825 36.8651C87.7825 33.9369 88.3987 31.4118 89.631 29.2898C90.8633 27.1254 92.4993 25.4703 94.5389 24.3245C96.6211 23.1786 98.8945 22.6057 101.359 22.6057C103.824 22.6057 105.906 23.1786 107.606 24.3245C109.305 25.4279 110.601 26.7435 111.494 28.2713L111.111 29.2898L111.685 23.6879H117.166V50.0424H111.239V43.1673L111.876 44.6951C111.706 45.1195 111.324 45.6712 110.729 46.3502C110.176 46.9868 109.411 47.6446 108.434 48.3236C107.499 49.0027 106.416 49.5756 105.183 50.0424C103.951 50.4668 102.57 50.679 101.04 50.679ZM102.634 45.7773C104.121 45.7773 105.46 45.5014 106.649 44.9497C107.839 44.398 108.817 43.6341 109.581 42.6581C110.389 41.6395 110.941 40.43 111.239 39.0295V33.8732C110.899 32.6 110.304 31.4966 109.454 30.563C108.604 29.5869 107.584 28.8442 106.394 28.3349C105.205 27.7832 103.887 27.5074 102.443 27.5074C100.87 27.5074 99.4256 27.8893 98.1083 28.6532C96.7911 29.4171 95.7287 30.4781 94.9214 31.8361C94.1565 33.1942 93.7741 34.7856 93.7741 36.6105C93.7741 38.3081 94.1777 39.8571 94.9851 41.2576C95.7925 42.658 96.876 43.7615 98.2358 44.5678C99.5956 45.3741 101.062 45.7773 102.634 45.7773Z" fill="#3F3F3F"/>
<path d="M127.425 0.770933H133.352V50.0424H127.425V0.770933Z" fill="#3F3F3F"/>
<path d="M145.839 62.7104L163.24 23.6879H168.722L151.703 62.7104H145.839ZM152.341 50.2334L139.657 23.6879H146.349L156.994 47.2414L152.341 50.2334Z" fill="#3F3F3F"/>
<path d="M177.272 50.0424V28.9715H172.746V23.6879H177.272V12.5477C177.272 8.72821 178.122 5.79993 179.821 3.76287C181.564 1.72581 184.113 0.707275 187.47 0.707275C188.363 0.707275 189.34 0.834591 190.402 1.08922C191.507 1.34386 192.463 1.76825 193.271 2.36239L190.785 6.62749C190.402 6.24554 189.977 5.99091 189.51 5.86359C189.042 5.69384 188.575 5.60896 188.108 5.60896C186.535 5.60896 185.324 6.13944 184.474 7.20041C183.625 8.26139 183.2 10.065 183.2 12.6114V23.6879H191.55V28.9715H183.2V50.0424H177.272Z" fill="#3F3F3F"/>
<path d="M201.806 12.1021H207.733V23.8152H215V28.4623H207.733V50.0424H201.806V28.4623H196.961V23.8152H201.806V12.1021Z" fill="#3F3F3F"/>
<path fill-rule="evenodd" clip-rule="evenodd" d="M40.1809 3.7197L32.1498 4.50462L24.0813 35.1364L9.43391 6.86091L0.0217815 8.34566C0.272469 5.64837 2.65345 3.57689 5.41663 3.65181C13.473 3.87024 25.3366 3.67479 34.8601 3.5179C36.1213 3.49712 37.3415 3.47702 38.5064 3.45864C39.0929 3.44939 39.6566 3.54188 40.1809 3.7197ZM43.0494 6.24541L29.8285 50.4773H38.4588C41.2151 50.4773 43.4515 48.2468 43.4588 45.4905L43.5564 8.45592C43.5585 7.66223 43.376 6.91182 43.0494 6.24541ZM21.0308 50.4773L0 12.4416V45.4773C0 48.2388 2.23858 50.4773 5 50.4773H21.0308Z" fill="#3E28A9"/>
</svg>
