<svg width="29" height="9" viewBox="0 0 29 9" fill="none" xmlns="http://www.w3.org/2000/svg">
<path fill-rule="evenodd" clip-rule="evenodd" d="M12.6915 8.10967H10.4941L11.8685 0.901367H14.0657L12.6915 8.10967Z" fill="#0742A6"/>
<path fill-rule="evenodd" clip-rule="evenodd" d="M20.6578 1.07764C20.2244 0.931788 19.537 0.770752 18.687 0.770752C16.517 0.770752 14.989 1.75226 14.9796 3.15551C14.9616 4.19083 16.0737 4.76587 16.9054 5.11108C17.7555 5.46383 18.0445 5.69407 18.0445 6.0085C18.0358 6.49141 17.3576 6.714 16.7249 6.714C15.8476 6.714 15.3776 6.59924 14.6632 6.33057L14.3739 6.2154L14.0664 7.83351C14.5818 8.03266 15.5313 8.2094 16.517 8.21714C18.8226 8.21714 20.3237 7.25082 20.3415 5.75543C20.3502 4.93486 19.763 4.30611 18.497 3.79232C17.7285 3.4625 17.2578 3.24011 17.2578 2.90265C17.2668 2.59586 17.6559 2.28164 18.5235 2.28164C19.2378 2.26625 19.7626 2.41189 20.1603 2.55764L20.359 2.63418L20.6578 1.07764Z" fill="#0742A6"/>
<path fill-rule="evenodd" clip-rule="evenodd" d="M24.5901 0.901367H26.2897L28.0624 8.10957H26.0279C26.0279 8.10957 25.8288 7.28135 25.7657 7.02828H22.9445C22.8629 7.21989 22.4833 8.10957 22.4833 8.10957H20.1777L23.4416 1.49944C23.6677 1.03162 24.0659 0.901367 24.5901 0.901367ZM24.4554 3.53923C24.4554 3.53923 23.7591 5.14195 23.5781 5.55606H25.4045C25.3142 5.19566 24.8981 3.47023 24.8981 3.47023L24.7445 2.84912C24.6798 3.00906 24.5863 3.22895 24.5232 3.37727C24.4805 3.4778 24.4517 3.54545 24.4554 3.53923Z" fill="#0742A6"/>
<path fill-rule="evenodd" clip-rule="evenodd" d="M8.65942 0.901367L6.5075 5.81674L6.27235 4.81984C5.8745 3.66956 4.62677 2.41979 3.23438 1.79838L5.20546 8.10202H7.52909L10.9829 0.901367H8.65942V0.901367Z" fill="#0742A6"/>
<path fill-rule="evenodd" clip-rule="evenodd" d="M4.50898 0.901367H0.973668L0.9375 1.04701C3.69526 1.64519 5.52167 3.08708 6.27206 4.82015L5.50353 1.50729C5.377 1.04691 4.98817 0.916554 4.50898 0.901367Z" fill="#0742A6"/>
</svg>
